<svg width="40" height="40" viewBox="0 0 40 40" fill="none" xmlns="http://www.w3.org/2000/svg">
<path d="M15.833 25.9733V14.0266C15.8333 13.8772 15.8737 13.7305 15.9501 13.6021C16.0265 13.4736 16.1361 13.368 16.2673 13.2965C16.3985 13.2249 16.5466 13.1899 16.696 13.1952C16.8453 13.2005 16.9905 13.2459 17.1163 13.3266L26.4097 19.2983C26.5273 19.3737 26.6242 19.4775 26.6912 19.6001C26.7583 19.7227 26.7934 19.8602 26.7934 20C26.7934 20.1397 26.7583 20.2772 26.6912 20.3999C26.6242 20.5225 26.5273 20.6263 26.4097 20.7016L17.1163 26.675C16.9905 26.7557 16.8453 26.8011 16.696 26.8064C16.5466 26.8117 16.3985 26.7767 16.2673 26.7052C16.1361 26.6336 16.0265 26.528 15.9501 26.3996C15.8737 26.2711 15.8333 26.1245 15.833 25.975V25.9733Z" fill="white"/>
<path d="M1.66699 20.0001C1.66699 9.87508 9.87533 1.66675 20.0003 1.66675C30.1253 1.66675 38.3337 9.87508 38.3337 20.0001C38.3337 30.1251 30.1253 38.3334 20.0003 38.3334C9.87533 38.3334 1.66699 30.1251 1.66699 20.0001ZM20.0003 4.16675C15.8011 4.16675 11.7738 5.8349 8.80447 8.80422C5.83514 11.7736 4.16699 15.8008 4.16699 20.0001C4.16699 24.1993 5.83514 28.2266 8.80447 31.1959C11.7738 34.1653 15.8011 35.8334 20.0003 35.8334C24.1996 35.8334 28.2269 34.1653 31.1962 31.1959C34.1655 28.2266 35.8337 24.1993 35.8337 20.0001C35.8337 15.8008 34.1655 11.7736 31.1962 8.80422C28.2269 5.8349 24.1996 4.16675 20.0003 4.16675Z" fill="white"/>
</svg>
